<mxfile host="app.diagrams.net" modified="2021-05-19T21:36:46.087Z" agent="5.0 (X11; Linux x86_64) AppleWebKit/537.36 (KHTML, like Gecko) Chrome/90.0.4430.93 Safari/537.36" etag="5wSerUMKYL3nibeBMsi6" version="14.6.13" type="github">
  <diagram id="C5RBs43oDa-KdzZeNtuy" name="Page-1">
    <mxGraphModel dx="1058" dy="594" grid="1" gridSize="10" guides="1" tooltips="1" connect="1" arrows="1" fold="1" page="1" pageScale="1" pageWidth="827" pageHeight="1169" math="0" shadow="0">
      <root>
        <mxCell id="WIyWlLk6GJQsqaUBKTNV-0" />
        <mxCell id="WIyWlLk6GJQsqaUBKTNV-1" parent="WIyWlLk6GJQsqaUBKTNV-0" />
        <mxCell id="2EYxxpn-FX1AscC3N8eO-9" value="" style="endArrow=none;dashed=1;html=1;dashPattern=1 3;strokeWidth=2;edgeStyle=orthogonalEdgeStyle;" parent="WIyWlLk6GJQsqaUBKTNV-1" edge="1">
          <mxGeometry width="50" height="50" relative="1" as="geometry">
            <mxPoint x="625" y="44" as="sourcePoint" />
            <mxPoint x="700" y="60" as="targetPoint" />
            <Array as="points">
              <mxPoint x="625" y="60" />
              <mxPoint x="785" y="60" />
              <mxPoint x="785" y="420" />
              <mxPoint x="625" y="420" />
            </Array>
          </mxGeometry>
        </mxCell>
        <mxCell id="2EYxxpn-FX1AscC3N8eO-10" value="" style="shape=mxgraph.mockup.containers.marginRect;rectMarginTop=10;strokeColor=#666666;strokeWidth=1;dashed=0;arcSize=5;recursiveResize=0;" parent="WIyWlLk6GJQsqaUBKTNV-1" vertex="1">
          <mxGeometry x="60" y="910" width="150" height="310" as="geometry" />
        </mxCell>
        <mxCell id="2EYxxpn-FX1AscC3N8eO-16" value="Traditional&#xa;server" style="outlineConnect=0;fontColor=#232F3E;gradientColor=none;strokeColor=#232F3E;fillColor=#ffffff;dashed=0;verticalLabelPosition=bottom;verticalAlign=top;align=center;html=1;fontSize=12;fontStyle=0;aspect=fixed;shape=mxgraph.aws4.resourceIcon;resIcon=mxgraph.aws4.traditional_server;" parent="2EYxxpn-FX1AscC3N8eO-10" vertex="1">
          <mxGeometry x="30" y="40" width="80" height="80" as="geometry" />
        </mxCell>
        <mxCell id="2EYxxpn-FX1AscC3N8eO-20" value="Traditional&#xa;server" style="outlineConnect=0;fontColor=#232F3E;gradientColor=none;strokeColor=#232F3E;fillColor=#ffffff;dashed=0;verticalLabelPosition=bottom;verticalAlign=top;align=center;html=1;fontSize=12;fontStyle=0;aspect=fixed;shape=mxgraph.aws4.resourceIcon;resIcon=mxgraph.aws4.traditional_server;" parent="2EYxxpn-FX1AscC3N8eO-10" vertex="1">
          <mxGeometry x="30" y="170" width="80" height="80" as="geometry" />
        </mxCell>
        <mxCell id="2EYxxpn-FX1AscC3N8eO-30" value="" style="pointerEvents=1;shadow=0;dashed=0;html=1;strokeColor=none;fillColor=#505050;labelPosition=center;verticalLabelPosition=bottom;verticalAlign=top;outlineConnect=0;align=center;shape=mxgraph.office.servers.virtual_web_server;" parent="WIyWlLk6GJQsqaUBKTNV-1" vertex="1">
          <mxGeometry x="670" y="191.5" width="62" height="75" as="geometry" />
        </mxCell>
        <mxCell id="2EYxxpn-FX1AscC3N8eO-31" value="" style="pointerEvents=1;shadow=0;dashed=0;html=1;strokeColor=none;fillColor=#505050;labelPosition=center;verticalLabelPosition=bottom;verticalAlign=top;outlineConnect=0;align=center;shape=mxgraph.office.servers.virtual_web_server;" parent="WIyWlLk6GJQsqaUBKTNV-1" vertex="1">
          <mxGeometry x="670" y="73.5" width="62" height="75" as="geometry" />
        </mxCell>
        <mxCell id="2EYxxpn-FX1AscC3N8eO-61" value="" style="endArrow=none;dashed=1;html=1;dashPattern=1 3;strokeWidth=2;edgeStyle=orthogonalEdgeStyle;" parent="WIyWlLk6GJQsqaUBKTNV-1" edge="1">
          <mxGeometry width="50" height="50" relative="1" as="geometry">
            <mxPoint x="234" y="459" as="sourcePoint" />
            <mxPoint x="224" y="459" as="targetPoint" />
            <Array as="points">
              <mxPoint x="234" y="731" />
              <mxPoint x="74" y="731" />
              <mxPoint x="74" y="439" />
              <mxPoint x="234" y="439" />
              <mxPoint x="234" y="459" />
            </Array>
          </mxGeometry>
        </mxCell>
        <mxCell id="2EYxxpn-FX1AscC3N8eO-62" value="" style="pointerEvents=1;shadow=0;dashed=0;html=1;strokeColor=none;fillColor=#505050;labelPosition=center;verticalLabelPosition=bottom;verticalAlign=top;outlineConnect=0;align=center;shape=mxgraph.office.servers.virtual_web_server;" parent="WIyWlLk6GJQsqaUBKTNV-1" vertex="1">
          <mxGeometry x="123" y="470" width="62" height="75" as="geometry" />
        </mxCell>
        <mxCell id="2EYxxpn-FX1AscC3N8eO-63" value="" style="pointerEvents=1;shadow=0;dashed=0;html=1;strokeColor=none;fillColor=#505050;labelPosition=center;verticalLabelPosition=bottom;verticalAlign=top;outlineConnect=0;align=center;shape=mxgraph.office.servers.virtual_web_server;" parent="WIyWlLk6GJQsqaUBKTNV-1" vertex="1">
          <mxGeometry x="120" y="610" width="62" height="75" as="geometry" />
        </mxCell>
        <mxCell id="70xQtrACmuDJWDSH9-ND-0" value="&lt;font style=&quot;font-size: 18px&quot;&gt;&lt;b&gt;VPC&lt;/b&gt;&lt;/font&gt;" style="text;html=1;align=center;verticalAlign=middle;resizable=0;points=[];autosize=1;strokeColor=none;" vertex="1" parent="WIyWlLk6GJQsqaUBKTNV-1">
          <mxGeometry x="295" y="30" width="50" height="20" as="geometry" />
        </mxCell>
        <mxCell id="70xQtrACmuDJWDSH9-ND-1" value="" style="endArrow=none;dashed=1;html=1;dashPattern=1 3;strokeWidth=2;edgeStyle=orthogonalEdgeStyle;" edge="1" parent="WIyWlLk6GJQsqaUBKTNV-1">
          <mxGeometry width="50" height="50" relative="1" as="geometry">
            <mxPoint x="381" y="78" as="sourcePoint" />
            <mxPoint x="529" y="70" as="targetPoint" />
            <Array as="points">
              <mxPoint x="381" y="70" />
              <mxPoint x="541" y="70" />
              <mxPoint x="541" y="458" />
              <mxPoint x="381" y="458" />
              <mxPoint x="381" y="70" />
            </Array>
          </mxGeometry>
        </mxCell>
        <mxCell id="70xQtrACmuDJWDSH9-ND-3" style="edgeStyle=orthogonalEdgeStyle;rounded=0;orthogonalLoop=1;jettySize=auto;html=1;" edge="1" parent="WIyWlLk6GJQsqaUBKTNV-1" source="70xQtrACmuDJWDSH9-ND-2" target="2EYxxpn-FX1AscC3N8eO-30">
          <mxGeometry relative="1" as="geometry" />
        </mxCell>
        <mxCell id="70xQtrACmuDJWDSH9-ND-2" value="" style="pointerEvents=1;shadow=0;dashed=0;html=1;strokeColor=none;fillColor=#505050;labelPosition=center;verticalLabelPosition=bottom;verticalAlign=top;outlineConnect=0;align=center;shape=mxgraph.office.servers.virtual_web_server;" vertex="1" parent="WIyWlLk6GJQsqaUBKTNV-1">
          <mxGeometry x="430" y="205" width="62" height="75" as="geometry" />
        </mxCell>
        <mxCell id="70xQtrACmuDJWDSH9-ND-4" value="" style="endArrow=none;dashed=1;html=1;dashPattern=1 3;strokeWidth=2;edgeStyle=orthogonalEdgeStyle;" edge="1" parent="WIyWlLk6GJQsqaUBKTNV-1">
          <mxGeometry width="50" height="50" relative="1" as="geometry">
            <mxPoint x="346" y="10" as="sourcePoint" />
            <mxPoint x="421" y="26" as="targetPoint" />
            <Array as="points">
              <mxPoint x="336" y="10" />
              <mxPoint x="336" y="26" />
              <mxPoint x="800" y="26" />
              <mxPoint x="800" y="580" />
              <mxPoint x="346" y="580" />
              <mxPoint x="346" y="26" />
            </Array>
          </mxGeometry>
        </mxCell>
        <mxCell id="70xQtrACmuDJWDSH9-ND-5" value="Subnet" style="text;html=1;align=center;verticalAlign=middle;resizable=0;points=[];autosize=1;strokeColor=none;" vertex="1" parent="WIyWlLk6GJQsqaUBKTNV-1">
          <mxGeometry x="345" y="110" width="50" height="20" as="geometry" />
        </mxCell>
        <mxCell id="70xQtrACmuDJWDSH9-ND-6" value="Subnet" style="text;html=1;align=center;verticalAlign=middle;resizable=0;points=[];autosize=1;strokeColor=none;" vertex="1" parent="WIyWlLk6GJQsqaUBKTNV-1">
          <mxGeometry x="570" y="70" width="50" height="20" as="geometry" />
        </mxCell>
        <mxCell id="70xQtrACmuDJWDSH9-ND-10" style="edgeStyle=orthogonalEdgeStyle;rounded=0;orthogonalLoop=1;jettySize=auto;html=1;" edge="1" parent="WIyWlLk6GJQsqaUBKTNV-1" source="70xQtrACmuDJWDSH9-ND-7">
          <mxGeometry relative="1" as="geometry">
            <mxPoint x="310" y="246" as="targetPoint" />
          </mxGeometry>
        </mxCell>
        <mxCell id="70xQtrACmuDJWDSH9-ND-15" style="edgeStyle=orthogonalEdgeStyle;rounded=0;orthogonalLoop=1;jettySize=auto;html=1;" edge="1" parent="WIyWlLk6GJQsqaUBKTNV-1" source="70xQtrACmuDJWDSH9-ND-7">
          <mxGeometry relative="1" as="geometry">
            <mxPoint x="310" y="230" as="targetPoint" />
          </mxGeometry>
        </mxCell>
        <mxCell id="70xQtrACmuDJWDSH9-ND-7" value="" style="aspect=fixed;perimeter=ellipsePerimeter;html=1;align=center;shadow=0;dashed=0;spacingTop=3;image;image=img/lib/active_directory/internet_cloud.svg;" vertex="1" parent="WIyWlLk6GJQsqaUBKTNV-1">
          <mxGeometry x="140" y="219" width="50" height="31.5" as="geometry" />
        </mxCell>
        <mxCell id="70xQtrACmuDJWDSH9-ND-11" value="&lt;font style=&quot;font-size: 18px&quot;&gt;Internet&lt;/font&gt;" style="text;html=1;align=center;verticalAlign=middle;resizable=0;points=[];autosize=1;strokeColor=none;" vertex="1" parent="WIyWlLk6GJQsqaUBKTNV-1">
          <mxGeometry x="170" y="270" width="80" height="20" as="geometry" />
        </mxCell>
        <mxCell id="70xQtrACmuDJWDSH9-ND-19" style="edgeStyle=orthogonalEdgeStyle;rounded=0;orthogonalLoop=1;jettySize=auto;html=1;" edge="1" parent="WIyWlLk6GJQsqaUBKTNV-1" source="70xQtrACmuDJWDSH9-ND-18" target="70xQtrACmuDJWDSH9-ND-2">
          <mxGeometry relative="1" as="geometry" />
        </mxCell>
        <mxCell id="70xQtrACmuDJWDSH9-ND-18" value="&lt;font style=&quot;font-size: 14px&quot;&gt;Internet Gateway&lt;/font&gt;" style="text;html=1;align=center;verticalAlign=middle;resizable=0;points=[];autosize=1;strokeColor=none;" vertex="1" parent="WIyWlLk6GJQsqaUBKTNV-1">
          <mxGeometry x="247" y="219" width="120" height="20" as="geometry" />
        </mxCell>
        <mxCell id="70xQtrACmuDJWDSH9-ND-20" value="&lt;font style=&quot;font-size: 14px&quot;&gt;&lt;b&gt;Launcing Template&lt;/b&gt;&lt;/font&gt;" style="text;html=1;align=center;verticalAlign=middle;resizable=0;points=[];autosize=1;strokeColor=none;rotation=90;" vertex="1" parent="WIyWlLk6GJQsqaUBKTNV-1">
          <mxGeometry x="510" y="240" width="140" height="20" as="geometry" />
        </mxCell>
        <mxCell id="70xQtrACmuDJWDSH9-ND-25" style="edgeStyle=orthogonalEdgeStyle;rounded=0;orthogonalLoop=1;jettySize=auto;html=1;" edge="1" parent="WIyWlLk6GJQsqaUBKTNV-1" source="70xQtrACmuDJWDSH9-ND-23" target="2EYxxpn-FX1AscC3N8eO-30">
          <mxGeometry relative="1" as="geometry" />
        </mxCell>
        <mxCell id="70xQtrACmuDJWDSH9-ND-27" style="edgeStyle=orthogonalEdgeStyle;rounded=0;orthogonalLoop=1;jettySize=auto;html=1;" edge="1" parent="WIyWlLk6GJQsqaUBKTNV-1" source="70xQtrACmuDJWDSH9-ND-23" target="2EYxxpn-FX1AscC3N8eO-31">
          <mxGeometry relative="1" as="geometry" />
        </mxCell>
        <mxCell id="70xQtrACmuDJWDSH9-ND-23" value="" style="pointerEvents=1;shadow=0;dashed=0;html=1;strokeColor=none;fillColor=#505050;labelPosition=center;verticalLabelPosition=bottom;verticalAlign=top;outlineConnect=0;align=center;shape=mxgraph.office.servers.virtual_web_server;" vertex="1" parent="WIyWlLk6GJQsqaUBKTNV-1">
          <mxGeometry x="428" y="330" width="62" height="75" as="geometry" />
        </mxCell>
        <mxCell id="70xQtrACmuDJWDSH9-ND-24" value="NFS Server" style="text;html=1;align=center;verticalAlign=middle;resizable=0;points=[];autosize=1;strokeColor=none;" vertex="1" parent="WIyWlLk6GJQsqaUBKTNV-1">
          <mxGeometry x="400" y="440" width="80" height="20" as="geometry" />
        </mxCell>
        <mxCell id="70xQtrACmuDJWDSH9-ND-29" value="Load Balancer" style="text;html=1;align=center;verticalAlign=middle;resizable=0;points=[];autosize=1;strokeColor=none;" vertex="1" parent="WIyWlLk6GJQsqaUBKTNV-1">
          <mxGeometry x="414" y="290" width="90" height="20" as="geometry" />
        </mxCell>
        <mxCell id="70xQtrACmuDJWDSH9-ND-30" value="" style="endArrow=none;dashed=1;html=1;dashPattern=1 3;strokeWidth=2;edgeStyle=orthogonalEdgeStyle;" edge="1" parent="WIyWlLk6GJQsqaUBKTNV-1">
          <mxGeometry width="50" height="50" relative="1" as="geometry">
            <mxPoint x="640" y="448" as="sourcePoint" />
            <mxPoint x="788" y="440" as="targetPoint" />
            <Array as="points">
              <mxPoint x="640" y="440" />
              <mxPoint x="800" y="440" />
              <mxPoint x="800" y="570" />
              <mxPoint x="640" y="570" />
              <mxPoint x="640" y="440" />
            </Array>
          </mxGeometry>
        </mxCell>
        <mxCell id="70xQtrACmuDJWDSH9-ND-31" value="" style="shape=cylinder3;whiteSpace=wrap;html=1;boundedLbl=1;backgroundOutline=1;size=15;" vertex="1" parent="WIyWlLk6GJQsqaUBKTNV-1">
          <mxGeometry x="692" y="490" width="40" height="60" as="geometry" />
        </mxCell>
        <mxCell id="70xQtrACmuDJWDSH9-ND-35" value="" style="endArrow=none;dashed=1;html=1;dashPattern=1 3;strokeWidth=2;edgeStyle=orthogonalEdgeStyle;" edge="1" parent="WIyWlLk6GJQsqaUBKTNV-1">
          <mxGeometry width="50" height="50" relative="1" as="geometry">
            <mxPoint x="460" y="468" as="sourcePoint" />
            <mxPoint x="608" y="460" as="targetPoint" />
            <Array as="points">
              <mxPoint x="460" y="460" />
              <mxPoint x="600" y="460" />
              <mxPoint x="600" y="590" />
              <mxPoint x="460" y="590" />
              <mxPoint x="460" y="460" />
            </Array>
          </mxGeometry>
        </mxCell>
        <mxCell id="70xQtrACmuDJWDSH9-ND-36" value="" style="pointerEvents=1;shadow=0;dashed=0;html=1;strokeColor=none;fillColor=#505050;labelPosition=center;verticalLabelPosition=bottom;verticalAlign=top;outlineConnect=0;align=center;shape=mxgraph.office.servers.virtual_web_server;" vertex="1" parent="WIyWlLk6GJQsqaUBKTNV-1">
          <mxGeometry x="504" y="490" width="62" height="75" as="geometry" />
        </mxCell>
        <mxCell id="70xQtrACmuDJWDSH9-ND-37" value="Caching" style="text;html=1;align=center;verticalAlign=middle;resizable=0;points=[];autosize=1;strokeColor=none;" vertex="1" parent="WIyWlLk6GJQsqaUBKTNV-1">
          <mxGeometry x="640" y="450" width="60" height="20" as="geometry" />
        </mxCell>
      </root>
    </mxGraphModel>
  </diagram>
</mxfile>
